<?xml version="1.0" encoding="utf-8"?><!DOCTYPE svg PUBLIC "-//W3C//DTD SVG 1.1//EN" "http://www.w3.org/Graphics/SVG/1.1/DTD/svg11.dtd"><svg version="1.1" id="Contours" xmlns="http://www.w3.org/2000/svg" xmlns:xlink="http://www.w3.org/1999/xlink" x="0px" y="0px" width="4032px" height="1790px" viewBox="0.000000 -0.000000 4032.000000 1734.050049" enable-background="new 0 0 4032.000000 4032.000000" xml:space="preserve" stroke="black" fill="none" stroke-linecap='round' stroke-linejoin='round'><path class="selected"  fill="#000000" opacity="1.000000" stroke="none" 
 	d="
M0.000000 6.618357 C0.804289 6.589312 1.665559 7.545168 2.404305 7.458361 C13.170106 6.193251 21.339609 13.390570 30.751133 16.384066 C46.563175 21.413344 61.739189 28.403803 77.371429 34.046587 C97.209869 41.207682 116.596077 49.008097 134.195389 61.039042 C144.130264 67.830546 155.276886 72.827273 165.722183 78.899920 C178.779449 86.491099 191.214050 95.153307 201.137070 106.560236 C207.980682 114.427271 213.413193 123.433893 212.165222 134.983286 C211.719345 139.109583 210.943619 141.665461 206.590714 142.602091 C202.360229 143.512385 198.289841 145.169687 194.057755 146.068827 C184.537003 148.091608 175.023880 150.377253 165.385223 151.547129 C157.545349 152.498652 149.519241 151.815439 141.592606 152.202707 C138.512314 152.353205 135.424698 153.271128 132.435394 154.159174 C127.514664 155.620981 126.959488 158.251917 129.524643 162.830881 C133.736252 170.348887 137.332703 178.227839 140.899384 186.085825 C143.950516 192.807947 146.858475 199.620325 149.342606 206.567011 C151.568466 212.791514 147.566055 218.143259 140.903671 218.016627 C138.170029 217.964670 135.490372 216.446497 132.729843 216.181055 C124.028046 215.344309 115.308739 214.497278 106.578217 214.219492 C100.755455 214.034205 99.894218 216.293909 99.875229 222.627527 C99.841888 233.740366 102.127792 245.174235 94.229141 255.299174 C91.533279 258.754862 89.076775 260.694651 85.272476 259.987772 C81.063271 259.205668 76.085052 258.485605 73.125015 255.848856 C65.352959 248.925669 56.227871 244.036295 49.391315 235.351023 C40.663071 224.262430 30.497780 213.736216 18.083113 206.012568 C14.262411 203.635554 11.036683 200.180094 7.893405 196.880396 C5.883934 194.770929 3.899065 193.553965 0.500000 194.118357 C0.000000 131.785029 0.000000 69.451693 0.000000 6.618357 z"/><path class="selected"  fill="#000000" opacity="1.000000" stroke="none" 
 	d="
M4032.000000 1355.618357 C4017.530273 1358.921335 4002.860352 1360.971384 3988.651855 1364.755076 C3976.329102 1368.036692 3964.347412 1369.176706 3951.997803 1366.114451 C3943.791260 1364.079294 3934.047119 1351.845408 3934.025635 1343.401804 C3934.011719 1337.997019 3933.187012 1332.477610 3937.187012 1327.710032 C3938.218018 1326.481516 3937.931396 1324.014109 3937.962891 1322.111033 C3938.011963 1319.137278 3938.016113 1316.493723 3940.698242 1314.161326 C3942.401855 1312.679758 3944.009033 1309.752146 3943.803467 1307.655100 C3943.131592 1300.805979 3948.261719 1296.087229 3949.457764 1289.898630 C3950.852295 1282.683054 3953.329590 1275.586130 3956.112793 1268.753611 C3959.241211 1261.073557 3962.949707 1253.590891 3966.914551 1246.298777 C3974.453613 1232.433298 3982.159912 1218.649973 3990.161621 1205.047190 C3997.398193 1192.745310 4005.819092 1181.310007 4018.827637 1174.427805 C4022.591553 1172.436594 4026.926758 1171.525095 4031.500000 1170.118357 C4032.000000 1231.784983 4032.000000 1293.451731 4032.000000 1355.618357 z"/><path class="selected"  fill="#000000" opacity="1.000000" stroke="none" 
 	d="
M1387.500000 984.618357 C1408.267700 991.606028 1428.252686 998.803782 1447.302979 1008.402781 C1459.147217 1014.370676 1471.442749 1019.557200 1482.829224 1026.289499 C1496.315552 1034.263498 1509.732910 1042.591501 1514.741943 1059.389475 C1515.761353 1062.807810 1519.864136 1065.881663 1517.225342 1069.621287 C1514.429688 1073.583323 1510.859985 1078.796824 1506.780151 1079.721506 C1493.965942 1082.625803 1481.678589 1087.886423 1468.221069 1088.280710 C1460.666138 1088.502146 1452.958374 1089.639719 1445.677246 1091.656321 C1434.547485 1094.738962 1433.318970 1099.026560 1439.554077 1108.662546 C1442.107788 1112.609324 1444.283813 1116.918528 1447.413940 1120.349070 C1453.286865 1126.785593 1455.783936 1134.904734 1459.114990 1142.533762 C1460.582642 1145.894846 1460.127563 1150.278147 1459.814819 1154.138132 C1459.700195 1155.552927 1457.646118 1157.628000 1456.173828 1157.930979 C1453.727051 1158.434519 1450.541992 1158.592844 1448.534790 1157.416941 C1440.763062 1152.863718 1431.802124 1154.827830 1423.655151 1152.347117 C1421.045654 1151.552561 1417.579834 1153.321482 1414.569092 1154.148020 C1409.618774 1155.506907 1409.514893 1157.890818 1411.295532 1162.756663 C1414.848633 1172.466013 1415.187988 1182.543162 1412.424438 1192.942087 C1409.694580 1203.214548 1405.641479 1203.472361 1396.623535 1201.517649 C1384.658691 1198.924143 1374.659424 1192.164988 1366.246216 1183.312693 C1355.505615 1172.011667 1343.416992 1162.480906 1330.731689 1153.408274 C1322.492798 1147.515696 1316.005615 1139.165598 1308.771606 1131.878855 C1300.549072 1123.596384 1291.758545 1115.836008 1286.120239 1105.297068 C1279.693359 1093.284006 1272.186157 1081.780710 1266.626831 1069.392527 C1261.978882 1059.034983 1260.414307 1047.288035 1255.717651 1036.959665 C1251.466431 1027.611033 1253.607788 1017.309885 1249.773926 1008.438547 C1245.432983 998.393870 1250.625610 989.461130 1252.943604 981.137827 C1255.313843 972.626719 1262.886841 965.872141 1273.950684 963.700571 C1286.413208 961.254465 1297.677124 964.651377 1309.549072 965.795176 C1329.437988 967.711252 1348.048584 974.686655 1367.475830 978.242685 C1374.119751 979.458933 1380.499512 982.118357 1387.500000 984.618357 z"/><path class="selected"  fill="#000000" opacity="1.000000" stroke="none" 
 	d="
M942.000000 726.118357 C936.334717 726.118357 931.666565 726.013987 927.004822 726.142527 C919.783020 726.341746 916.055847 731.127024 918.783386 737.713328 C921.728210 744.824351 926.162903 751.317270 929.123657 758.423166 C931.964966 765.242441 934.224182 772.401804 935.745789 779.621103 C936.286072 782.184580 934.220825 785.550181 932.685669 788.162119 C932.143738 789.084299 929.437683 789.481699 928.061829 789.043894 C919.835632 786.426157 911.800049 783.175730 903.507996 780.813608 C899.831177 779.766184 895.640259 779.835581 891.812927 780.355784 C890.354248 780.554026 888.372009 783.335398 888.173096 785.112375 C887.657349 789.719980 887.448547 794.505076 888.123352 799.070627 C889.265381 806.797434 886.340088 813.571116 883.848633 820.369761 C882.449524 824.187754 879.469421 825.097300 874.552856 824.449900 C862.864624 822.910959 854.585571 816.825205 847.269653 808.420298 C841.701416 802.023142 836.088074 795.658030 830.298401 789.462046 C818.635986 776.980967 806.362488 765.032908 795.277588 752.064463 C788.606079 744.259348 783.534851 735.048655 778.044006 726.281992 C771.953857 716.558420 767.066711 706.198069 764.067688 695.101206 C761.875000 686.988230 758.083740 679.389658 757.781799 670.620310 C757.558594 664.136423 755.362122 657.715342 753.986511 651.278696 C753.400879 648.538401 752.548218 645.852488 752.024292 643.102305 C750.881897 637.105723 754.275940 630.598948 750.000000 624.940989 C754.270386 617.169138 749.486572 607.673777 754.999573 599.998606 C759.890381 593.189585 764.575562 586.410288 773.794312 585.346262 C778.279480 584.828501 782.947571 583.564463 787.260742 584.279490 C809.069702 587.894968 829.805115 594.904978 850.422485 603.038401 C869.954651 610.743601 889.536621 618.195872 907.954590 628.240183 C921.069519 635.392466 933.749084 643.397043 946.285339 651.540842 C957.649231 658.922922 968.893860 666.577402 979.550415 674.929209 C987.104370 680.849436 991.287231 689.757090 995.948914 698.036875 C996.531982 699.072642 995.988647 700.907969 996.709778 701.669504 C998.792847 703.869150 1001.476868 706.229502 999.680969 709.184946 C997.639648 712.544138 994.721130 715.602671 991.573303 717.985056 C988.952148 719.968638 985.547607 721.569407 982.316833 721.980906 C969.247620 723.645579 956.111450 724.785044 942.000000 726.118357 z"/><path class="selected"  fill="#000000" opacity="1.000000" stroke="none" 
 	d="
M1768.000000 1440.118357 C1758.044189 1431.162546 1749.209229 1422.081614 1740.103760 1413.280710 C1727.059326 1400.672678 1713.220581 1388.825876 1700.864136 1375.587229 C1692.260986 1366.369700 1684.454590 1355.985056 1678.340088 1344.983591 C1671.801270 1333.218577 1666.099976 1320.488718 1663.016602 1307.473215 C1660.859375 1298.367136 1658.329346 1289.298288 1655.708984 1280.372996 C1653.492798 1272.824778 1652.268921 1265.154612 1650.562866 1257.560740 C1649.000854 1250.607859 1651.026123 1232.011301 1658.895264 1224.572825 C1666.050049 1217.809641 1675.017334 1212.463938 1685.435425 1214.294871 C1700.538086 1216.948801 1715.878296 1218.265452 1730.579834 1223.465037 C1745.447388 1228.723215 1760.911377 1232.269236 1775.925415 1237.145823 C1797.403931 1244.122141 1817.550781 1254.264231 1837.475342 1264.730906 C1852.331543 1272.535227 1867.648193 1279.808420 1880.835938 1290.279978 C1890.120850 1297.652414 1898.083618 1306.603953 1901.494873 1318.591990 C1903.663208 1326.211741 1899.877075 1334.264963 1892.619263 1336.035959 C1885.598389 1337.749094 1878.436523 1338.936594 1871.293213 1340.085398 C1858.141479 1342.200632 1844.939575 1344.006174 1831.795288 1346.163767 C1824.807251 1347.310740 1822.863281 1351.129465 1826.047119 1357.405466 C1829.687866 1364.582224 1833.961792 1371.444651 1837.451294 1378.689036 C1840.653198 1385.336497 1843.367065 1392.240793 1845.903809 1399.175486 C1846.878784 1401.840647 1843.164062 1406.146311 1840.224121 1406.048044 C1837.387207 1405.953318 1834.547119 1405.392893 1831.747437 1404.840037 C1824.057495 1403.321604 1816.449219 1401.198313 1808.694214 1400.250559 C1799.837646 1399.168284 1795.826538 1405.882029 1798.882080 1415.971628 C1801.630371 1425.046946 1799.522949 1433.532908 1795.934082 1441.818064 C1795.231201 1443.440745 1793.715210 1445.887156 1792.508667 1445.926218 C1784.196289 1446.195994 1775.514526 1447.306223 1768.000000 1440.118357 z"/><path class="selected"  fill="#000000" opacity="1.000000" stroke="none" 
 	d="
M2115.500000 1182.618357 C2101.762207 1165.704783 2090.460938 1147.896799 2080.752441 1129.329905 C2075.439453 1119.168894 2067.554443 1110.344065 2064.265137 1099.245920 C2060.577393 1086.802683 2051.392822 1076.346384 2051.888672 1062.350290 C2052.424316 1047.243845 2060.982910 1035.490671 2075.695557 1032.186838 C2091.566162 1028.622996 2107.711670 1026.985422 2123.968994 1028.198557 C2136.434570 1029.128733 2149.056396 1029.796335 2161.222656 1032.391306 C2173.840576 1035.082712 2186.394287 1038.483469 2198.325928 1043.997019 C2219.600098 1053.827707 2238.183350 1067.596506 2256.664062 1081.673899 C2265.175293 1088.156931 2273.680176 1094.978830 2283.129883 1099.801218 C2291.713379 1104.181833 2293.931641 1112.885203 2299.574707 1119.140085 C2302.823975 1122.741770 2297.873047 1132.238230 2292.146484 1133.986643 C2285.882568 1135.899241 2279.305420 1136.786814 2272.863770 1138.117624 C2270.408691 1138.624705 2267.793213 1138.742747 2265.523193 1139.690378 C2256.687012 1143.378733 2256.157959 1145.062815 2260.129150 1153.275705 C2263.748779 1160.761545 2267.331299 1168.270334 2270.703613 1175.869455 C2274.534912 1184.503122 2272.223389 1187.646189 2263.055908 1188.229319 C2254.518066 1188.772532 2246.057373 1186.923777 2239.043945 1183.454294 C2231.664795 1179.803904 2224.669922 1180.200754 2217.410645 1180.255076 C2211.026123 1180.302805 2209.670410 1182.123728 2210.075928 1188.447703 C2210.337646 1192.526682 2210.505615 1196.940745 2212.165283 1200.535349 C2216.106445 1209.070139 2216.074219 1217.937205 2216.009277 1226.928049 C2215.961182 1233.587961 2216.141846 1240.252024 2215.967285 1246.907786 C2215.692139 1257.413401 2209.721680 1261.642771 2199.665771 1258.852366 C2197.530273 1258.259714 2195.140625 1258.605662 2192.983643 1258.061350 C2189.093750 1257.079783 2184.873291 1256.451243 2181.523682 1254.449289 C2166.936279 1245.731394 2155.923584 1233.284495 2145.892334 1219.727244 C2140.500244 1212.439524 2133.859375 1206.088328 2128.057129 1199.086619 C2123.805908 1193.956247 2120.002930 1188.454538 2115.500000 1182.618357 z"/><path class="selected"  fill="#000000" opacity="1.000000" stroke="none" 
 	d="
M442.000000 478.118357 C441.529114 480.255869 441.343353 481.679087 440.538666 482.482004 C436.849457 486.162851 437.005280 489.285837 440.205414 493.587839 C444.439606 499.279917 449.293457 504.605295 451.112701 512.033335 C453.320923 521.049326 450.412689 526.188120 441.846313 523.729014 C434.529114 521.628489 428.157410 523.529917 421.410828 524.184824 C414.198486 524.884897 412.037933 527.468760 412.024689 534.632883 C412.014679 540.048655 412.124115 545.140146 414.912903 550.446543 C418.386719 557.056406 415.847076 564.117014 411.914062 570.240915 C411.271790 571.240854 409.522614 571.963205 408.234772 572.047617 C396.472809 572.819101 385.932251 569.674753 375.914062 563.231394 C361.268097 553.811594 346.112701 545.181406 331.138641 536.274912 C321.616425 530.611094 312.030670 525.115793 304.014221 517.241221 C298.684662 512.005930 292.284698 507.790171 287.340118 502.247141 C275.736298 489.239084 264.686066 475.655344 256.945465 459.915171 C249.882965 445.553934 243.622391 430.796488 237.121353 416.163492 C236.375732 414.485209 236.107941 412.492258 236.048828 410.631540 C235.900848 405.972330 236.796860 401.136515 235.851593 396.672800 C232.936600 382.907633 248.341751 369.640146 261.426575 368.284800 C275.064880 366.872141 288.835266 366.515299 302.558624 366.247507 C308.263733 366.136179 313.995117 367.465769 319.717468 368.114267 C325.111694 368.725565 330.415985 367.606394 336.004700 369.796427 C341.478760 371.941569 347.970917 371.793833 354.041718 372.051523 C369.627045 372.713114 384.502716 377.184183 399.436371 380.839243 C416.525421 385.021860 433.101685 391.255320 450.065765 396.008921 C461.065887 399.091288 470.868530 404.455454 479.668579 411.224924 C484.501617 414.942789 488.098206 420.815470 490.990570 426.373179 C494.799866 433.692789 489.732330 442.848063 480.919922 446.104502 C469.938965 450.162272 458.859650 453.962137 447.951691 458.204722 C444.230988 459.651835 441.370392 462.251963 441.928314 467.130320 C442.304474 470.419382 442.000000 473.786265 442.000000 478.118357 z"/><path class="selected"  fill="#000000" opacity="1.000000" stroke="none" 
 	d="
M3681.500000 1547.618357 C3683.726074 1537.394968 3689.408691 1529.477488 3694.047363 1521.119822 C3700.526611 1509.445994 3706.881592 1497.661814 3714.125977 1486.465891 C3721.506592 1475.059275 3729.881104 1464.294626 3737.855469 1453.274119 C3743.242188 1445.829905 3747.970215 1437.729197 3754.316406 1431.210520 C3760.354980 1425.008127 3768.053223 1420.296824 3776.781982 1418.185740 C3780.314941 1417.331370 3784.059326 1416.689280 3787.655273 1416.888254 C3795.866455 1417.342600 3798.446045 1424.405100 3799.688232 1430.387400 C3801.517334 1439.195749 3801.210449 1448.658640 3801.188721 1457.488108 C3801.167725 1465.982248 3800.496338 1474.929026 3800.080078 1483.661326 C3799.764404 1490.277903 3801.427979 1491.660471 3808.294189 1492.118113 C3813.169434 1492.442942 3817.727051 1491.889231 3822.073730 1489.144724 C3831.859131 1482.966379 3842.794922 1481.407908 3854.143311 1482.136423 C3859.390625 1482.473093 3860.472412 1484.575266 3859.438477 1489.769724 C3857.672852 1498.636667 3852.106445 1506.221750 3851.797607 1515.693796 C3851.542725 1523.514475 3853.901367 1527.379954 3861.848877 1528.141184 C3867.583008 1528.690500 3873.500977 1528.756052 3878.950195 1530.355784 C3882.771240 1531.477488 3887.443359 1531.108469 3890.187744 1535.958689 C3893.499268 1541.810618 3890.778320 1546.184641 3888.319092 1550.701121 C3882.758789 1560.913157 3874.380127 1568.306589 3864.694824 1574.693552 C3858.506592 1578.774119 3853.041260 1584.118601 3847.803711 1589.439768 C3835.483887 1601.956736 3822.009521 1613.178782 3807.642334 1623.076243 C3798.071777 1629.669016 3787.701904 1635.464304 3775.968018 1638.222361 C3766.027832 1640.558664 3756.336426 1643.935618 3746.463623 1646.586130 C3741.025635 1648.046091 3735.485840 1649.601389 3729.913086 1649.993723 C3715.217285 1651.028635 3700.403809 1652.699656 3685.774902 1651.820505 C3664.794189 1650.559519 3653.742920 1631.167551 3656.229980 1614.788889 C3657.004150 1609.690256 3658.902344 1604.488230 3660.424316 1599.543894 C3664.037109 1587.807810 3666.296143 1575.488840 3672.477783 1564.581980 C3675.522461 1559.209788 3678.171875 1553.613352 3681.500000 1547.618357 z"/><path class="selected"  fill="#000000" opacity="1.000000" stroke="none" 
 	d="
M2371.500000 1506.618357 C2379.062500 1510.180857 2386.687256 1512.380198 2393.048096 1516.520579 C2401.328369 1521.910349 2410.834473 1526.288523 2414.316406 1537.218455 C2416.706787 1544.721628 2416.475830 1547.652414 2409.685547 1552.113108 C2396.888916 1560.519480 2383.498535 1567.489817 2368.169678 1570.185984 C2361.906250 1571.287546 2360.816895 1573.891184 2359.862549 1579.863718 C2357.940918 1591.889231 2363.570312 1600.756296 2370.327881 1609.636301 C2373.479492 1613.777414 2375.966553 1618.607004 2377.848389 1623.475046 C2379.406494 1627.505442 2375.367920 1631.916819 2370.949219 1632.136423 C2365.845215 1632.390207 2360.274170 1630.651194 2355.844971 1634.198557 C2351.279053 1637.855295 2347.051270 1641.989573 2343.064453 1646.276560 C2341.985840 1647.436228 2342.077393 1649.901926 2342.043457 1651.775339 C2341.929199 1658.105051 2342.090088 1664.439524 2341.974854 1670.769114 C2341.856934 1677.260447 2339.052490 1679.869822 2332.424316 1680.127512 C2322.302246 1680.521067 2313.349609 1677.792307 2304.645996 1672.275828 C2289.170654 1662.466868 2273.172119 1653.466990 2257.230225 1644.414255 C2240.360107 1634.834177 2224.084229 1624.287302 2212.072754 1608.901072 C2199.768066 1593.139475 2187.912109 1576.939890 2179.903076 1558.304148 C2176.257812 1549.822092 2170.314209 1542.490793 2167.880371 1533.272532 C2164.911377 1522.028391 2164.972412 1511.010813 2168.009033 1499.909372 C2170.195801 1491.914866 2176.900879 1488.111399 2183.721191 1486.405832 C2193.551270 1483.947703 2203.845459 1483.160349 2213.993652 1482.225535 C2220.271973 1481.647288 2226.850098 1481.106394 2232.937012 1482.326975 C2245.984619 1484.943308 2259.364014 1482.490427 2272.359375 1485.937082 C2278.804688 1487.646555 2285.755127 1487.454172 2292.477295 1488.117869 C2307.224609 1489.573801 2321.548340 1493.094797 2335.818115 1496.917185 C2347.526855 1500.053660 2359.271240 1503.056467 2371.500000 1506.618357 z"/><path class="selected"  fill="#000000" opacity="1.000000" stroke="none" 
 	d="
M3877.500000 1097.618357 C3871.393066 1110.731394 3860.659180 1118.323435 3849.630859 1125.387400 C3826.332764 1140.310740 3803.437012 1156.027537 3777.918457 1167.061594 C3762.097656 1173.902414 3745.939697 1179.988108 3729.797363 1186.051462 C3719.083252 1190.075998 3708.357910 1193.980784 3697.026367 1196.364206 C3687.221436 1198.426706 3673.174561 1200.567087 3665.523193 1197.937449 C3662.088135 1196.756907 3658.986328 1193.961619 3656.322510 1191.307688 C3649.553711 1184.564524 3644.841553 1176.950022 3645.876709 1166.614817 C3646.537598 1160.015330 3645.962646 1153.295725 3646.014404 1146.630442 C3646.044434 1142.786936 3644.992676 1138.668284 3649.103760 1135.846262 C3649.860107 1135.327097 3650.064209 1133.473459 3649.943115 1132.295481 C3649.265625 1125.705881 3652.802734 1119.976999 3653.674072 1113.902781 C3655.428223 1101.674509 3661.480225 1090.995066 3664.502441 1079.228953 C3666.732910 1070.545115 3673.092041 1062.780832 3678.224854 1055.011912 C3689.524414 1037.909250 3704.964844 1024.488718 3719.120117 1009.921824 C3728.046387 1000.736277 3736.243408 990.819651 3745.445557 981.933237 C3751.323975 976.256907 3758.468506 972.031260 3767.303467 972.078135 C3772.366943 972.105051 3774.898438 974.677378 3776.029541 979.341257 C3777.125977 983.862986 3778.654785 988.286631 3779.596924 992.835520 C3779.944336 994.512400 3779.343506 996.475290 3778.858643 998.219797 C3776.243652 1007.631785 3779.292969 1012.332834 3788.662598 1011.997019 C3794.993408 1011.769846 3801.284668 1010.403635 3807.590088 1009.522288 C3810.732422 1009.082956 3813.963623 1007.925730 3816.970215 1008.362620 C3818.826416 1008.632273 3821.632812 1011.191843 3821.765381 1012.898264 C3822.232910 1018.907663 3822.308105 1024.745676 3818.855225 1030.612986 C3814.197510 1038.527414 3811.494141 1047.572580 3807.118652 1055.682810 C3805.476807 1058.726267 3806.570801 1059.646311 3808.196777 1061.341501 C3811.776367 1065.074045 3816.078369 1066.253733 3821.224609 1066.200388 C3838.530273 1066.020823 3855.313477 1069.224558 3871.959717 1073.912668 C3877.829590 1075.565622 3880.479004 1078.197947 3879.948486 1083.942087 C3879.540771 1088.356516 3878.666504 1092.727854 3877.500000 1097.618357 z"/><path class="selected"  fill="#000000" opacity="1.000000" stroke="none" 
 	d="
M3109.500000 1667.618357 C3105.588379 1670.663279 3100.217041 1671.912424 3102.048828 1678.021433 C3102.661377 1680.063913 3103.388916 1682.412424 3104.845459 1683.801706 C3110.976807 1689.649973 3117.600342 1694.987375 3123.655518 1700.908762 C3127.955078 1705.113474 3127.468018 1710.690622 3123.855957 1715.356760 C3117.560547 1723.489206 3108.191650 1724.625315 3099.277100 1725.962839 C3083.511719 1728.328318 3067.587891 1729.531565 3051.762207 1731.641916 C3036.957275 1733.616038 3021.960205 1735.312937 3006.414795 1732.759226 C2993.593262 1730.652903 2980.886475 1728.245554 2968.977783 1723.818674 C2946.839844 1715.589182 2925.036377 1706.186228 2906.982910 1690.153391 C2904.373291 1687.835642 2901.228760 1686.108103 2898.686768 1683.728464 C2889.457031 1675.088816 2888.738525 1663.784617 2890.281738 1652.417063 C2890.773682 1648.792673 2894.112061 1645.138621 2896.962402 1642.322458 C2909.025635 1630.404368 2922.425049 1620.202219 2937.228027 1611.815256 C2948.857178 1605.226511 2960.119873 1597.989084 2971.775879 1591.450510 C2981.194580 1586.166819 2990.616699 1580.618479 3000.636475 1576.732493 C3022.172363 1568.379954 3044.038574 1560.861887 3065.878906 1553.318186 C3079.871826 1548.484934 3093.983887 1549.052195 3107.853760 1554.148386 C3114.233154 1556.492380 3117.270508 1564.138498 3113.942871 1570.207102 C3104.587646 1587.268625 3096.625732 1605.284250 3082.105225 1618.961374 C3078.420166 1622.432566 3079.498779 1625.405710 3082.869629 1627.854075 C3085.334961 1629.644968 3088.196045 1631.091379 3091.093018 1632.052317 C3101.646973 1635.553049 3112.616699 1638.016794 3122.805420 1642.341623 C3132.375732 1646.403879 3131.997803 1653.556955 3125.168945 1657.911692 C3120.182861 1661.091013 3115.061279 1664.057078 3109.500000 1667.618357 z"/><path class="selected"  fill="#000000" opacity="1.000000" stroke="none" 
 	d="
M762.000000 300.118357 C761.719604 283.053782 772.601074 271.591623 789.069824 266.105692 C798.661682 262.910532 808.606201 261.628702 818.479126 259.736735 C835.246338 256.523478 851.976257 255.586680 868.831055 256.246164 C883.305664 256.812571 897.377197 260.294108 910.712280 265.945414 C927.425842 273.028452 943.794495 280.924265 960.495972 288.037241 C971.084717 292.546854 981.608032 297.159281 990.688843 304.250223 C994.381775 307.133921 997.614014 311.117441 999.827332 315.257395 C1002.603882 320.450846 997.757507 327.724100 990.880249 330.131876 C985.359131 332.064890 979.852661 334.046305 974.388855 336.135019 C965.932922 339.367624 962.480103 340.296122 969.292664 352.259714 C972.248596 357.450602 976.500305 361.889261 979.691223 366.966349 C981.447021 369.759897 985.526611 371.713846 982.737549 376.650339 C980.131592 381.262858 976.575623 382.211924 972.058228 382.112345 C960.436340 381.856119 948.927856 382.681986 937.765137 386.147837 C929.780884 388.626871 929.593079 390.534281 931.330811 398.681101 C933.417358 408.463694 937.295166 417.695261 938.571777 427.848612 C939.319153 433.792917 942.307190 439.726175 942.043945 446.242624 C941.624451 456.629282 937.118347 458.601572 926.631714 458.512003 C912.225647 458.388865 901.208374 452.234598 890.470154 444.134043 C886.436279 441.091044 882.048035 438.486399 878.200623 435.233286 C863.861328 423.108683 848.440735 411.949961 835.731567 398.284525 C817.083191 378.233133 797.612244 358.675181 782.525635 335.558909 C775.222656 324.369089 767.600098 313.337046 762.000000 300.118357 z"/><path class="selected"  fill="#000000" opacity="1.000000" stroke="none" 
 	d="
M1806.500000 841.618357 C1810.431396 847.960642 1813.325317 853.990854 1811.966309 861.037485 C1811.001831 866.038157 1815.291260 867.741038 1817.543335 870.765635 C1817.985962 871.359995 1817.661133 872.525767 1817.690308 873.427988 C1816.983276 873.181223 1816.293701 872.829416 1815.565796 872.709421 C1813.989502 872.449473 1812.105835 871.661326 1810.851318 872.219858 C1800.196777 876.963450 1790.422852 873.026499 1780.477173 869.696665 C1777.516113 868.705271 1774.099976 867.761362 1771.155762 868.282847 C1763.076294 869.713999 1762.269775 871.403635 1761.914551 879.914316 C1761.744263 883.991526 1760.103027 888.037790 1760.152466 892.085520 C1760.205933 896.474497 1760.342773 900.795603 1761.535889 905.377512 C1763.476074 912.827768 1760.316284 920.395090 1754.746216 926.200510 C1753.603760 927.391367 1751.310547 928.105723 1749.599365 928.019175 C1740.002197 927.533457 1730.936523 925.372934 1723.513184 918.654673 C1717.717041 913.409311 1711.500610 908.588450 1706.038818 903.021921 C1695.435913 892.215403 1684.646240 881.499399 1675.044922 869.831675 C1667.086304 860.160410 1660.505493 849.315928 1653.708252 838.737986 C1644.769287 824.826975 1635.947266 810.825571 1627.593140 796.559580 C1622.136841 787.241892 1616.985229 777.639719 1612.870239 767.680308 C1610.165405 761.133982 1608.968018 753.791453 1608.146484 746.684092 C1607.099487 737.627207 1619.096436 722.038096 1628.217773 720.216746 C1634.169678 719.028208 1640.301880 718.690195 1646.368652 718.141367 C1654.749512 717.383127 1663.170776 715.994883 1671.529175 716.268992 C1695.035522 717.039744 1718.488281 719.594065 1740.440308 728.395945 C1752.140869 733.087351 1763.001221 740.156687 1773.700195 746.998240 C1790.373779 757.660288 1806.966187 768.535349 1822.800293 780.379954 C1828.722290 784.810007 1832.462769 792.179026 1837.117310 798.269724 C1839.059937 800.811594 1838.219849 802.958017 1836.072876 805.119150 C1832.126221 809.091623 1828.114502 812.021921 1821.964355 812.340220 C1816.130981 812.642161 1810.105225 814.079477 1804.682617 816.289683 C1797.218262 819.332102 1797.245972 820.429819 1800.326294 827.468638 C1802.301514 831.981882 1804.114258 836.566050 1806.500000 841.618357 z"/><path class="selected"  fill="#000000" opacity="1.000000" stroke="none" 
 	d="
M2794.500000 1380.618357 C2786.326416 1385.357615 2785.356445 1391.370066 2792.559814 1395.433787 C2806.454590 1403.272776 2815.698242 1415.353220 2824.749756 1427.821970 C2827.512451 1431.627756 2832.185791 1433.683420 2832.239014 1439.810618 C2832.301758 1447.046091 2829.903564 1451.815622 2823.204102 1454.061106 C2816.460693 1456.321238 2809.654785 1459.313669 2802.710449 1459.854319 C2790.534668 1460.802195 2778.278320 1460.422190 2766.364014 1456.293039 C2761.987793 1454.776560 2756.736328 1454.820261 2752.243896 1454.599436 C2736.541992 1453.827830 2722.038086 1447.808176 2706.656982 1445.891062 C2699.743164 1445.029368 2693.043457 1441.956125 2686.407959 1439.457834 C2671.432861 1433.819651 2656.697510 1427.515330 2641.600342 1422.238718 C2628.340332 1417.604441 2616.996826 1409.776926 2606.456787 1401.161936 C2594.534424 1391.416941 2595.642822 1380.654856 2603.093994 1367.955515 C2611.584229 1353.485178 2624.501465 1343.673777 2637.724609 1334.127024 C2646.173584 1328.027170 2654.432617 1321.616282 2663.221924 1316.047922 C2676.341553 1307.735788 2690.486816 1301.487253 2705.735352 1298.159006 C2719.728760 1295.104929 2733.604980 1291.929758 2748.196289 1291.848581 C2761.970703 1291.771921 2775.710938 1289.085520 2789.509277 1288.288401 C2795.501953 1287.942087 2801.887207 1288.541330 2807.586182 1290.329905 C2816.327148 1293.073069 2821.772461 1296.851511 2815.851562 1307.939524 C2812.459229 1314.292063 2807.892822 1320.112131 2803.273193 1325.689890 C2798.027100 1332.023508 2798.294189 1334.877268 2805.701660 1338.817331 C2812.795898 1342.590769 2820.120361 1345.991160 2826.932617 1350.218088 C2833.457520 1354.266428 2834.131348 1358.172922 2828.511719 1362.276194 C2822.063721 1366.983957 2814.593262 1370.312937 2807.486084 1374.088205 C2803.407227 1376.254831 2799.167480 1378.118357 2794.500000 1380.618357 z"/><path class="selected"  fill="#000000" opacity="1.000000" stroke="none" 
 	d="
M3361.500000 1256.618357 C3363.553955 1266.123606 3363.329346 1274.899363 3360.140869 1283.682810 C3358.565186 1288.023386 3363.957031 1293.684153 3369.445068 1294.064524 C3373.425781 1294.340525 3377.441162 1294.118357 3381.440918 1294.118357 C3384.440674 1294.118357 3387.458740 1293.907053 3390.436768 1294.160349 C3397.658203 1294.774485 3399.071045 1297.199534 3397.203613 1303.978586 C3394.396973 1314.166453 3387.670410 1322.093699 3382.301025 1330.810251 C3381.152832 1332.674021 3379.686768 1334.388987 3378.822266 1336.371042 C3376.717773 1341.195505 3377.583740 1343.933298 3382.709229 1346.016428 C3388.702881 1348.452585 3394.945801 1350.353220 3401.195557 1352.066721 C3412.252930 1355.098093 3423.285400 1358.014109 3433.241699 1364.064280 C3439.900879 1368.110666 3441.983398 1372.892161 3439.184814 1379.917795 C3434.537109 1391.584788 3425.228027 1398.922678 3414.477051 1403.933420 C3401.939453 1409.777048 3388.719971 1414.147532 3375.850830 1419.293284 C3358.277832 1426.320139 3340.336914 1432.227732 3321.804688 1436.029123 C3306.666504 1439.134226 3291.187012 1440.708201 3276.193604 1444.342722 C3263.060059 1447.525950 3249.927979 1446.423411 3236.995850 1445.667063 C3227.600098 1445.117502 3219.126221 1440.021067 3213.785645 1430.595530 C3209.433594 1422.914622 3210.270996 1416.132273 3211.633057 1407.899851 C3214.593506 1390.004099 3223.557129 1374.803904 3230.354248 1358.565256 C3238.739258 1338.533274 3251.203857 1321.558542 3266.615723 1306.626658 C3274.825439 1298.672800 3284.759277 1292.942820 3294.262207 1286.629954 C3306.916992 1278.223459 3318.716309 1268.536692 3331.293457 1260.004465 C3340.301270 1253.893503 3350.314941 1251.398752 3361.500000 1256.618357 z"/><path class="selected"  fill="#000000" opacity="1.000000" stroke="none" 
 	d="
M367.500000 70.618357 C365.587341 68.039019 364.299194 65.861017 362.742004 63.896181 C351.725647 49.995592 354.310638 36.327784 367.264557 25.395807 C377.648132 16.633021 390.174377 14.493197 402.051910 10.236754 C412.809570 6.381621 423.906097 3.458052 434.904572 0.302729 C436.746429 -0.225687 438.849548 0.128493 440.832062 0.123648 C446.827118 0.109003 452.827728 0.284243 458.816162 0.084471 C472.044464 -0.356819 484.744781 0.836760 497.382690 5.908148 C520.809204 15.308825 544.875366 23.109629 568.360107 32.375300 C573.769897 34.509684 578.126221 39.639391 582.547119 43.833559 C585.229248 46.378039 584.921753 52.792086 581.748291 55.147745 C576.259521 59.222063 570.381042 62.885943 564.311584 66.039736 C551.248718 72.827349 550.826050 75.473841 560.784973 86.079996 C565.095520 90.670687 568.816772 95.952074 572.066711 101.363520 C575.473755 107.036631 574.659912 107.823771 568.856079 110.183161 C560.272705 113.672465 551.403992 111.685816 542.676331 112.011927 C537.757568 112.195734 533.628967 113.556833 529.092773 115.513346 C524.172363 117.635599 523.702271 120.432200 524.035339 124.513483 C524.134521 125.728296 524.378906 127.092493 525.028809 128.076426 C532.385742 139.214411 534.226685 152.286768 538.005127 164.678049 C538.635254 166.744471 539.161499 168.865992 540.029297 170.832514 C544.151062 180.173197 539.069092 187.060221 529.048584 188.321589 C509.193665 190.820933 494.427948 180.434336 479.403931 170.441553 C466.302155 161.727259 453.413727 152.686381 440.567200 143.597391 C436.371521 140.628946 432.441467 137.230295 428.670563 133.726404 C416.853455 122.746027 404.808838 111.974436 393.548950 100.441858 C384.506775 91.180765 376.478302 80.929987 367.500000 70.618357 z"/><path class="selected"  fill="#000000" opacity="1.000000" stroke="none" 
 	d="
M1362.000000 598.118357 C1370.722656 602.785044 1378.259644 607.804636 1386.230347 611.999949 C1391.986938 615.029856 1393.199585 620.871226 1395.753296 625.669382 C1397.784546 629.486033 1393.590576 632.472544 1390.584717 633.958323 C1385.371948 636.534861 1379.571777 637.893381 1374.204712 640.197519 C1370.641113 641.727366 1366.762939 642.707163 1365.254517 647.576059 C1364.118408 651.243723 1363.390381 653.837168 1365.948730 657.248606 C1369.873535 662.482371 1373.145752 668.209604 1376.632690 673.766550 C1380.142212 679.359263 1376.778931 685.742319 1370.009399 686.070872 C1365.026733 686.312693 1359.971680 685.669504 1355.041992 686.234263 C1349.142822 686.909922 1343.098145 687.773691 1337.556274 689.774363 C1328.856201 692.915354 1328.052612 696.168039 1331.331665 704.590586 C1332.787720 708.330881 1333.631348 712.469614 1333.874634 716.480784 C1334.167114 721.301340 1335.647583 725.713572 1336.643677 730.278086 C1338.174927 737.294199 1337.328003 744.958628 1336.668945 752.273997 C1336.287598 756.506601 1333.272461 758.368174 1328.426758 758.258494 C1315.396729 757.963633 1303.734497 754.271860 1293.305786 746.446299 C1268.866455 728.107248 1246.485229 707.417185 1226.057983 684.821482 C1212.137207 669.422983 1199.764771 652.594553 1187.144287 636.066172 C1182.455444 629.925120 1177.997559 623.218638 1175.228027 616.074595 C1167.236206 595.459543 1171.425781 581.782969 1192.473022 574.220469 C1201.921143 570.825571 1211.819214 569.198679 1221.866577 567.778147 C1233.969849 566.066965 1245.951660 563.847300 1258.214233 564.141062 C1279.524292 564.651621 1299.944702 569.330149 1319.315430 578.171396 C1333.326294 584.566233 1347.113159 591.451670 1362.000000 598.118357 z"/></svg>